<?xml version="1.0" encoding="UTF-8"?>
<svg xmlns="http://www.w3.org/2000/svg" xmlns:xlink="http://www.w3.org/1999/xlink" viewBox="0 0 500 500">
  <defs>
    <style>
      .cls-1 {
        fill: url(#Gradiente_sem_nome_154-2);
      }

      .cls-1, .cls-2, .cls-3, .cls-4, .cls-5, .cls-6, .cls-7 {
        mix-blend-mode: soft-light;
      }

      .cls-2 {
        fill: url(#Gradiente_sem_nome_154-5);
      }

      .cls-3 {
        fill: url(#Gradiente_sem_nome_154-3);
      }

      .cls-4 {
        fill: url(#Gradiente_sem_nome_154-6);
      }

      .cls-5 {
        fill: url(#Gradiente_sem_nome_154-4);
      }

      .cls-6 {
        fill: url(#Gradiente_sem_nome_154-7);
      }

      .cls-8 {
        fill: #fff;
      }

      .cls-9, .cls-10 {
        fill: #ffdab6;
      }

      .cls-11, .cls-12 {
        fill: #bc8542;
      }

      .cls-13 {
        fill: #dba171;
      }

      .cls-14 {
        fill: #9b5408;
      }

      .cls-12 {
        opacity: .4;
      }

      .cls-12, .cls-10 {
        mix-blend-mode: multiply;
      }

      .cls-10, .cls-15 {
        opacity: .65;
      }

      .cls-16 {
        isolation: isolate;
      }

      .cls-7 {
        fill: url(#Gradiente_sem_nome_154);
      }

      .cls-15 {
        fill: #d39b5e;
      }
    </style>
    <linearGradient id="Gradiente_sem_nome_154" data-name="Gradiente sem nome 154" x1="545.35" y1="319.22" x2="386.35" y2="154.22" gradientUnits="userSpaceOnUse">
      <stop offset="0" stop-color="#000"/>
      <stop offset="1" stop-color="#000" stop-opacity="0"/>
    </linearGradient>
    <linearGradient id="Gradiente_sem_nome_154-2" data-name="Gradiente sem nome 154" x1="101.93" y1="377.3" x2="105.27" y2="394.64" xlink:href="#Gradiente_sem_nome_154"/>
    <linearGradient id="Gradiente_sem_nome_154-3" data-name="Gradiente sem nome 154" x1="248.8" y1="443.93" x2="223.8" y2="274.93" xlink:href="#Gradiente_sem_nome_154"/>
    <linearGradient id="Gradiente_sem_nome_154-4" data-name="Gradiente sem nome 154" x1="237.34" y1="297.85" x2="168" y2="235.85" xlink:href="#Gradiente_sem_nome_154"/>
    <linearGradient id="Gradiente_sem_nome_154-5" data-name="Gradiente sem nome 154" x1="238.2" y1="352.88" x2="216.87" y2="305.88" xlink:href="#Gradiente_sem_nome_154"/>
    <linearGradient id="Gradiente_sem_nome_154-6" data-name="Gradiente sem nome 154" x1="214.81" y1="369.59" x2="193.14" y2="307.59" xlink:href="#Gradiente_sem_nome_154"/>
    <linearGradient id="Gradiente_sem_nome_154-7" data-name="Gradiente sem nome 154" x1="169.26" y1="395.43" x2="167.59" y2="322.77" xlink:href="#Gradiente_sem_nome_154"/>
  </defs>
  <g class="cls-16">
    <g id="BACKGROUND">
      <rect class="cls-8" width="500" height="500"/>
    </g>
    <g id="OBJECTS">
      <g>
        <path class="cls-11" d="M500,111.98s-128.36,56.79-163.75,69.25l-59.91,19,106.14,60.43s56.3-13.55,117.52-30.03V111.98Z"/>
        <path class="cls-7" d="M500,111.98s-128.36,56.79-163.75,69.25l-59.91,19,106.14,60.43s56.3-13.55,117.52-30.03V111.98Z"/>
        <path class="cls-11" d="M93.14,381.24s-1.51,4.55-2.43,10.01c-.9,5.36,4.08,10.29,9.92,9.34,5.84-.95,10.48-6.39,11.83-14.07,1.35-7.68,2.66-15.43,2.66-15.43l-21.98,10.16Z"/>
        <path class="cls-1" d="M93.14,381.24s-1.51,4.55-2.43,10.01c-.9,5.36,4.08,10.29,9.92,9.34,5.84-.95,10.48-6.39,11.83-14.07,1.35-7.68,2.66-15.43,2.66-15.43l-21.98,10.16Z"/>
        <path class="cls-9" d="M0,306.9s131-36.82,251.13-101.97c0,0,21.49-12.81,28.31-18.52,6.83-5.71,17.21-14.44,24.71-18.3,7.51-3.86,26.17-8.54,31.01-9.79,4.84-1.26,8.69-.07,13.63,4.73,4.94,4.8,14.31,7.82,14.31,7.82,0,0-4.81,1.95-8.9,3.58-3.1,1.24-12.16,4.68-12.16,4.68,0,0-4.95,1.76-6.39,3.9-.94,1.4-1.25,3.17-.18,5.22,0,0,12.71,1.47,24.15,6.18,11.44,4.71,25.87,8.4,38.54,13.38,12.66,4.98,37.36,16.35,48.33,23.24,10.97,6.89,16.99,10.3,20.53,14.91,3.54,4.61,2.69,16.8-11.12,19.34,0,0-16.9-2.93-29.56-7.91,0,0,2.63,13.99-13.15,20.11,0,0-3.69,.48-10.13-.21-6.44-.69-15.3-4.36-22.02-4.05,0,0-2.24,.1-4.29,3.06-2.06,2.96-.74,4.44-3.18,7.32-3.59,4.23-6.27,4.67-8.93,7.27-2.67,2.6-.87,6.75-10.24,12.16s-28.9,6.05-42.62,4.74c-13.72-1.31-31.93-5.14-38.17-7.67,0,0-19.51,6.08-80.15,33.49C132.82,361.03,0,442.29,0,442.29v-135.39Z"/>
        <path class="cls-3" d="M0,306.9s131-36.82,251.13-101.97c0,0,21.49-12.81,28.31-18.52,6.83-5.71,17.21-14.44,24.71-18.3,7.51-3.86,26.17-8.54,31.01-9.79,4.84-1.26,8.69-.07,13.63,4.73,4.94,4.8,14.31,7.82,14.31,7.82,0,0-4.81,1.95-8.9,3.58-3.1,1.24-12.16,4.68-12.16,4.68,0,0-4.95,1.76-6.39,3.9-.94,1.4-1.25,3.17-.18,5.22,0,0,12.71,1.47,24.15,6.18,11.44,4.71,25.87,8.4,38.54,13.38,12.66,4.98,37.36,16.35,48.33,23.24,10.97,6.89,16.99,10.3,20.53,14.91,3.54,4.61,2.69,16.8-11.12,19.34,0,0-16.9-2.93-29.56-7.91,0,0,2.63,13.99-13.15,20.11,0,0-3.69,.48-10.13-.21-6.44-.69-15.3-4.36-22.02-4.05,0,0-2.24,.1-4.29,3.06-2.06,2.96-.74,4.44-3.18,7.32-3.59,4.23-6.27,4.67-8.93,7.27-2.67,2.6-.87,6.75-10.24,12.16s-28.9,6.05-42.62,4.74c-13.72-1.31-31.93-5.14-38.17-7.67,0,0-19.51,6.08-80.15,33.49C132.82,361.03,0,442.29,0,442.29v-135.39Z"/>
        <path class="cls-13" d="M426.35,257.39s-17.46-7.02-28.24-12.15c0,0,17.56,11.19,28.39,15.23l-.15-3.07Z"/>
        <path class="cls-13" d="M448.83,238.98s2.38,9.64-7.4,16.01l4-.52s6.57-5.8,3.4-15.49Z"/>
        <path class="cls-13" d="M371.33,216.01s7.91,.89,15.38,5.7c0,0-5.82-7.3-15.38-5.7Z"/>
        <path class="cls-13" d="M335.5,188.25s-10.94-2.11-18.38-4.4l17.72,2.2,.66,2.2Z"/>
        <path class="cls-11" d="M256.33,201.78s-44.3,14.68-60.3,16.77c0,0-5.17-.33-19.25,2.13-14.07,2.46-20.49,3.17-30.8,6.64-10.31,3.47-12.98,6.51-32.2,13.2,0,0-9.14,1.38-11.57,13.02-2.43,11.64,1.98,17.14-4.93,29.43,0,0-1.3,5.18,8.86,7.48,11.38,2.58,26.27-11.48,25.47-27.09,0,0,91.1-41.78,124.72-61.58Z"/>
        <path class="cls-5" d="M256.33,201.78s-44.3,14.68-60.3,16.77c0,0-5.17-.33-19.25,2.13-14.07,2.46-20.49,3.17-30.8,6.64-10.31,3.47-12.98,6.51-32.2,13.2,0,0-9.14,1.38-11.57,13.02-2.43,11.64,1.98,17.14-4.93,29.43,0,0-1.3,5.18,8.86,7.48,11.38,2.58,26.27-11.48,25.47-27.09,0,0,91.1-41.78,124.72-61.58Z"/>
        <path class="cls-15" d="M103.83,266.33s-1.02,8.13-2.95,12.93c0,0,1.86,2.48,6.65-1.69,4.79-4.17,5.53-10.97,3.69-14.43l-7.39,3.2Z"/>
        <path class="cls-14" d="M131.61,263.36s.31-6.96-.61-10.2c0,0,2.69,4.72,3.06,9.01l-2.45,1.19Z"/>
        <path class="cls-14" d="M135.19,261.71s4.82-4.65,6.55-9.34c0,0,.25,3.37-2.85,7.62l-3.71,1.71Z"/>
        <g>
          <path class="cls-11" d="M209.52,339.52s2.98,7.02,12.07,4c9.09-3.01,9.96-10.38,9.96-10.38,0,0-.32-32.45-.36-42.84-.04-10.39-9.81-10.23-14.41-8.56-4.6,1.67-8.25,6.09-8.24,17.18,.01,11.09-2.65,20.21-2.65,20.21l3.63,20.39Z"/>
          <path class="cls-2" d="M209.52,339.52s2.98,7.02,12.07,4c9.09-3.01,9.96-10.38,9.96-10.38,0,0-.32-32.45-.36-42.84-.04-10.39-9.81-10.23-14.41-8.56-4.6,1.67-8.25,6.09-8.24,17.18,.01,11.09-2.65,20.21-2.65,20.21l3.63,20.39Z"/>
          <path class="cls-15" d="M214.09,289.09s8.66-7.18,15.22,.05c0,0,1.57,10.69-6.85,12.2-8.42,1.52-8.36-12.25-8.36-12.25Z"/>
        </g>
        <path class="cls-11" d="M183.48,346.78s3.52,8.27,14.22,4.72c10.71-3.55,11.74-12.23,11.74-12.23,0,0-.38-38.25-.43-50.49-.05-12.24-11.57-12.06-16.99-10.08-5.42,1.97-9.73,7.17-9.71,20.24,.02,13.07-3.12,23.82-3.12,23.82l4.28,24.02Z"/>
        <path class="cls-4" d="M183.48,346.78s3.52,8.27,14.22,4.72c10.71-3.55,11.74-12.23,11.74-12.23,0,0-.38-38.25-.43-50.49-.05-12.24-11.57-12.06-16.99-10.08-5.42,1.97-9.73,7.17-9.71,20.24,.02,13.07-3.12,23.82-3.12,23.82l4.28,24.02Z"/>
        <path class="cls-15" d="M188.86,287.35s10.21-8.46,17.94,.06c0,0,1.85,12.59-8.08,14.38-9.93,1.79-9.86-14.44-9.86-14.44Z"/>
        <path class="cls-11" d="M166.69,368.49s16.8-1.6,17.95-19.65c.98-15.42-1.7-48.4-1.7-48.4,0,0-3.55-11.04-13.39-8.06-9.84,2.97-15.45,9.29-16.02,23.3-.57,14.01-3.49,32.27-1.63,40.85,1.87,8.58,9.19,12.23,14.79,11.97Z"/>
        <path class="cls-6" d="M166.69,368.49s16.8-1.6,17.95-19.65c.98-15.42-1.7-48.4-1.7-48.4,0,0-3.55-11.04-13.39-8.06-9.84,2.97-15.45,9.29-16.02,23.3-.57,14.01-3.49,32.27-1.63,40.85,1.87,8.58,9.19,12.23,14.79,11.97Z"/>
        <path class="cls-15" d="M163.75,300.75s8.86-6.84,16.09-1.08c0,0,2.97,12.08-5.19,16.13-8.15,4.04-13.28-6.33-10.9-15.05Z"/>
        <path class="cls-12" d="M500,213.87l-43.3,13.25s-38.21-18.08-63.25-23.75c0,0,46,18.96,68,35.61l38.55-10.61v-14.5Z"/>
        <path class="cls-12" d="M129.38,250.81s-.84,19.48-10.68,27.64c-9.83,8.17-19.75,3.92-19.75,3.92l-1,1.11s2.92,5.81,12.67,5.81,18.5-12.17,19.17-20.58c.67-8.42-.41-17.89-.41-17.89Z"/>
        <path class="cls-12" d="M184.45,306.54s1.33,31.4,1.33,37.74v3.34s2.92,4.58,10.33,3.17c7.42-1.42,10.58-7.34,11.75-10.67,0,0-2.93,5.39-12.02,4.99-4.98-.22-8.82-2.13-8.82-2.13-.58-46.25-1.82-44.92-1.91-52.82,0,0,.58-4.29,2.5-7.71,0,0-3.83,2.48-4.5,14.9,0,0,1.06,2.67,1.33,9.18Z"/>
        <path class="cls-12" d="M183.12,352.39s-3.94,6.98-15.05,6.73-15.74-14.12-15.74-14.12c0,0-1.57,22.29,12.62,22.38,13.94,.08,18.17-14.98,18.17-14.98Z"/>
        <path class="cls-12" d="M209.87,311.87l3.42,25.67s7.75,4.25,16.58-4.5c0,0,.17,7.25-9,9.42s-10.58-4.17-10.58-4.17l-.42-26.42Z"/>
        <path class="cls-12" d="M92.49,388.5l20.9-11.93s-.76,6.89-2.48,12.57c-1.72,5.69-6.13,10.04-10.73,10.41,0,0,5.37-3.12,5.61-8.41,.24-5.29,.48-7.29,.48-7.29l-14.42,8.33,.64-3.68Z"/>
        <path class="cls-10" d="M466.29,246.98s-7.92-9.2-16.92-13.45c0,0,4.33,17.33-6.75,23,0,0-8.42-.46-17.58-3.69-9.17-3.23-30.67-11.31-30.67-11.31l31.5,14.25s19.58,7.08,29.67,8.17c0,0,7.41-.91,10.33-6.83,2.92-5.92,.42-10.14,.42-10.14Z"/>
        <path class="cls-10" d="M425.2,261.2s-.96,10.83-12.9,15.08c0,0-6.6,.75-13.77-1.42-7.17-2.17-14.58-4-18.67-2.92,0,0,5.67-2.67,16.17-1.33,10.5,1.33,16.33-5.25,17.17-14.75l12,5.33Z"/>
        <path class="cls-10" d="M378.12,272.95s-2,1.42-3.33,5.17c-1.33,3.75-1.17,4.83-6.33,8.5-5.17,3.67-5.33,2.75-7.17,6.92-1.83,4.17-7.75,10.34-21.92,12.58-14.17,2.25-33.5,0-33.5,0,0,0,28,2.08,37.83-4.17,9.83-6.25,9.42-5.92,16.33-14.33,4.75-5.78,8.17-6.42,9.42-10.42s8.67-4.25,8.67-4.25Z"/>
        <path class="cls-10" d="M340.62,160.45s6.25,8.58-3.92,19.83l23.33-9.17s-7.33-1.08-9.92-4.67-5.75-6.08-9.5-6Z"/>
        <polygon class="cls-10" points="272.79 298.62 274.29 290.04 232.79 305.95 232.79 315.04 272.79 298.62"/>
        <polygon class="cls-10" points="150.48 334.67 2.36 406.76 2.36 438.08 149.76 353.93 150.48 334.67"/>
        <path class="cls-10" d="M112.15,291.87s19.48-1.67,21.02-27.94l8.02-3.57s3.63,33.96-29.04,31.51Z"/>
      </g>
    </g>
    <g id="DESIGNED_BY_FREEPIK" data-name="DESIGNED BY FREEPIK">
      <g>
        <g>
          <path class="cls-11" d="M181.09,472.13c-.25,0-.43,.08-.57,.26-.13,.17-.2,.42-.2,.75v2.39c-.3-.33-.62-.58-.94-.74-.32-.16-.71-.24-1.18-.24-.81,0-1.46,.28-1.95,.85-.49,.57-.74,1.36-.74,2.37,0,.48,.06,.92,.19,1.34,.12,.41,.31,.77,.55,1.07,.24,.3,.53,.54,.86,.7,.33,.16,.69,.25,1.08,.25,.29,0,.56-.04,.81-.12,.25-.08,.48-.2,.69-.36,.21-.16,.43-.36,.64-.61v.16c0,.3,.07,.52,.22,.69,.14,.16,.33,.24,.55,.24s.41-.08,.55-.23c.14-.15,.21-.39,.21-.69v-7.15c0-.31-.07-.53-.2-.69-.13-.16-.32-.23-.57-.23Zm-1.07,6.84c-.14,.31-.33,.53-.56,.68-.24,.15-.5,.22-.78,.22s-.54-.08-.78-.24c-.24-.15-.42-.39-.56-.7-.14-.31-.2-.68-.2-1.12,0-.42,.06-.78,.19-1.1,.13-.31,.31-.56,.54-.72,.23-.17,.5-.25,.8-.25s.55,.08,.79,.25c.24,.16,.43,.4,.57,.71,.14,.31,.21,.68,.21,1.11,0,.46-.07,.84-.21,1.15Z"/>
          <path class="cls-11" d="M188.45,478.05c.23-.12,.35-.39,.35-.79,0-.44-.11-.87-.34-1.29-.23-.42-.56-.77-1.02-1.03-.45-.27-1-.4-1.63-.4-.49,0-.93,.08-1.33,.23-.4,.16-.74,.38-1.01,.67-.27,.29-.48,.64-.62,1.05-.14,.41-.21,.85-.21,1.33,0,1.02,.29,1.82,.87,2.42,.58,.59,1.39,.89,2.43,.89,.46,0,.86-.06,1.21-.18,.35-.12,.64-.27,.87-.45,.23-.18,.4-.37,.52-.56,.11-.2,.17-.37,.17-.51,0-.17-.05-.29-.15-.39-.1-.09-.24-.14-.4-.14-.15,0-.27,.04-.36,.11-.2,.19-.37,.34-.49,.45-.13,.11-.26,.22-.42,.31-.15,.1-.31,.17-.47,.21-.16,.04-.34,.07-.53,.07-.29,0-.55-.07-.79-.21-.24-.14-.43-.35-.58-.64-.14-.28-.22-.61-.22-.97h3.17c.42,0,.75-.06,.99-.18Zm-4.15-.74c.06-.55,.21-.96,.47-1.24,.26-.28,.59-.42,.99-.42s.76,.14,1.02,.41c.26,.28,.41,.69,.45,1.24h-2.94Z"/>
          <path class="cls-11" d="M193.88,477.62c-.32-.17-.73-.32-1.23-.44-.42-.1-.76-.19-1-.26-.24-.07-.43-.16-.58-.27-.14-.11-.21-.25-.21-.42,0-.19,.1-.34,.29-.47,.19-.13,.44-.19,.73-.19s.51,.05,.68,.14c.17,.1,.31,.22,.43,.38,.15,.19,.28,.33,.4,.43,.12,.1,.26,.14,.42,.14,.23,0,.41-.06,.53-.18,.12-.12,.19-.27,.19-.46,0-.17-.06-.34-.18-.52-.12-.18-.29-.34-.51-.49-.22-.15-.5-.26-.84-.35-.33-.09-.71-.13-1.13-.13-.53,0-.99,.09-1.37,.26-.38,.17-.66,.4-.86,.69-.19,.29-.29,.6-.29,.92,0,.36,.1,.67,.31,.92,.21,.25,.49,.45,.84,.6,.35,.15,.8,.3,1.36,.44,.49,.12,.85,.24,1.07,.37,.22,.13,.32,.34,.32,.62,0,.19-.1,.35-.31,.5-.21,.14-.47,.22-.8,.22-.4,0-.72-.07-.95-.21-.23-.14-.43-.36-.6-.65-.08-.15-.17-.27-.26-.35-.09-.08-.22-.12-.39-.12-.19,0-.36,.06-.48,.19-.13,.13-.19,.28-.19,.46,0,.27,.1,.54,.3,.8,.2,.27,.5,.49,.92,.67,.41,.18,.91,.27,1.5,.27,.61,0,1.13-.08,1.55-.25,.43-.16,.75-.41,.96-.72,.22-.32,.33-.7,.33-1.15,0-.3-.08-.56-.25-.79-.16-.23-.41-.43-.72-.6Z"/>
          <path class="cls-11" d="M196.49,474.54c-.24,0-.43,.08-.58,.24-.15,.16-.22,.4-.22,.72v4.64c0,.32,.07,.56,.22,.73,.15,.17,.34,.26,.58,.26s.43-.08,.59-.25c.15-.17,.23-.41,.23-.74v-4.68c0-.29-.08-.51-.23-.68-.15-.16-.35-.24-.59-.24Z"/>
          <path class="cls-11" d="M196.5,472.2c-.22,0-.41,.07-.57,.22-.16,.15-.25,.34-.25,.57,0,.25,.08,.45,.24,.59,.16,.14,.35,.21,.58,.21s.41-.07,.56-.21c.16-.14,.24-.34,.24-.58s-.08-.45-.24-.59c-.16-.13-.35-.2-.56-.2Z"/>
          <path class="cls-11" d="M203.63,474.54c-.22,0-.4,.08-.53,.23-.14,.16-.21,.37-.21,.65v.22c-.29-.38-.6-.65-.94-.83-.34-.18-.73-.26-1.19-.26-.38,0-.74,.07-1.06,.2-.32,.14-.6,.34-.85,.61-.24,.27-.43,.6-.57,.99-.13,.39-.2,.83-.2,1.32,0,.65,.11,1.23,.33,1.73,.22,.5,.53,.89,.93,1.16,.41,.28,.88,.42,1.42,.42,.45,0,.84-.09,1.17-.27,.33-.18,.61-.45,.86-.8,0,.53-.02,.92-.04,1.16-.02,.24-.07,.46-.16,.67-.09,.21-.26,.37-.49,.49-.23,.12-.56,.18-.98,.18-.21,0-.39-.02-.55-.06-.16-.04-.29-.1-.41-.17-.11-.08-.22-.17-.31-.28-.09-.11-.18-.22-.27-.32-.18-.21-.39-.31-.62-.31-.19,0-.35,.06-.49,.19-.13,.12-.2,.28-.2,.48,0,.26,.12,.52,.36,.76,.24,.25,.58,.45,1.01,.61,.44,.16,.94,.23,1.5,.23,.61,0,1.12-.06,1.53-.18,.41-.12,.74-.31,.99-.56,.25-.25,.44-.57,.55-.96,.12-.39,.17-.85,.17-1.39v-4.71c0-.38-.05-.68-.15-.88-.1-.2-.31-.31-.62-.31Zm-1.03,4.37c-.15,.29-.35,.51-.59,.65-.24,.14-.49,.22-.76,.22-.46,0-.83-.17-1.11-.5-.29-.34-.43-.83-.43-1.49s.14-1.15,.42-1.5,.65-.53,1.11-.53,.86,.18,1.15,.55c.29,.37,.44,.88,.44,1.54,0,.42-.08,.77-.23,1.06Z"/>
          <path class="cls-11" d="M210.98,475.61c-.16-.34-.42-.6-.75-.79-.34-.19-.72-.28-1.15-.28s-.83,.09-1.17,.26c-.34,.18-.65,.45-.93,.83v-.2c0-.19-.03-.36-.1-.49-.07-.13-.16-.23-.28-.3-.11-.07-.24-.1-.39-.1-.23,0-.42,.08-.55,.23-.13,.15-.2,.38-.2,.69v4.68c0,.32,.08,.56,.23,.73,.15,.17,.34,.26,.58,.26s.44-.08,.59-.25c.15-.16,.23-.41,.23-.74v-2.03c0-.66,.04-1.11,.12-1.35,.11-.3,.28-.54,.52-.71,.24-.17,.5-.26,.79-.26,.44,0,.74,.14,.89,.42,.15,.28,.22,.69,.22,1.23v2.7c0,.32,.07,.56,.23,.73,.15,.17,.35,.26,.59,.26s.43-.08,.58-.25c.15-.17,.22-.41,.22-.74v-3.02c0-.36-.02-.65-.05-.88-.03-.23-.1-.44-.21-.64Z"/>
          <path class="cls-11" d="M217.82,478.05c.23-.12,.35-.39,.35-.79,0-.44-.11-.87-.34-1.29-.23-.42-.57-.77-1.02-1.03-.45-.27-1-.4-1.63-.4-.49,0-.93,.08-1.33,.23-.4,.16-.74,.38-1.01,.67-.27,.29-.48,.64-.62,1.05-.14,.41-.21,.85-.21,1.33,0,1.02,.29,1.82,.87,2.42,.58,.59,1.39,.89,2.43,.89,.46,0,.86-.06,1.21-.18,.35-.12,.64-.27,.87-.45,.23-.18,.41-.37,.52-.56,.11-.2,.17-.37,.17-.51,0-.17-.05-.29-.15-.39-.1-.09-.24-.14-.4-.14-.15,0-.27,.04-.36,.11-.2,.19-.37,.34-.49,.45-.13,.11-.27,.22-.42,.31-.15,.1-.31,.17-.47,.21-.16,.04-.34,.07-.53,.07-.29,0-.55-.07-.79-.21-.24-.14-.43-.35-.58-.64-.14-.28-.22-.61-.22-.97h3.17c.42,0,.75-.06,.99-.18Zm-4.15-.74c.06-.55,.21-.96,.47-1.24,.26-.28,.59-.42,.99-.42s.76,.14,1.02,.41c.26,.28,.41,.69,.45,1.24h-2.94Z"/>
          <path class="cls-11" d="M224.21,472.13c-.25,0-.43,.08-.57,.26-.13,.17-.2,.42-.2,.75v2.39c-.3-.33-.62-.58-.94-.74-.32-.16-.71-.24-1.18-.24-.81,0-1.46,.28-1.95,.85-.49,.57-.74,1.36-.74,2.37,0,.48,.06,.92,.19,1.34,.12,.41,.31,.77,.55,1.07,.24,.3,.53,.54,.86,.7,.33,.16,.69,.25,1.08,.25,.29,0,.56-.04,.81-.12,.25-.08,.48-.2,.69-.36,.21-.16,.43-.36,.64-.61v.16c0,.3,.07,.52,.22,.69,.14,.16,.33,.24,.55,.24s.41-.08,.55-.23c.14-.15,.21-.39,.21-.69v-7.15c0-.31-.07-.53-.2-.69-.13-.16-.32-.23-.57-.23Zm-1.07,6.84c-.14,.31-.33,.53-.56,.68-.24,.15-.5,.22-.78,.22s-.54-.08-.78-.24c-.24-.15-.43-.39-.56-.7-.14-.31-.21-.68-.21-1.12,0-.42,.06-.78,.19-1.1,.13-.31,.31-.56,.54-.72,.23-.17,.5-.25,.8-.25s.55,.08,.79,.25c.24,.16,.43,.4,.57,.71,.14,.31,.21,.68,.21,1.11,0,.46-.07,.84-.21,1.15Z"/>
          <path class="cls-11" d="M233.59,474.94c-.41-.25-.88-.38-1.42-.38-.47,0-.86,.08-1.18,.25-.32,.17-.63,.41-.93,.73v-2.48c0-.3-.07-.52-.2-.69-.13-.16-.33-.24-.58-.24s-.42,.08-.56,.25-.2,.42-.2,.74v7.07c0,.3,.07,.54,.2,.69,.14,.16,.32,.23,.55,.23s.41-.08,.56-.23c.15-.16,.22-.39,.22-.69v-.16c.18,.2,.32,.36,.43,.46,.11,.1,.24,.2,.39,.3,.15,.1,.34,.18,.56,.23,.22,.06,.45,.09,.7,.09,.41,0,.78-.08,1.12-.25,.34-.16,.63-.4,.86-.7,.24-.3,.42-.66,.54-1.06,.12-.41,.19-.86,.19-1.35,0-.67-.11-1.24-.34-1.72-.22-.48-.54-.85-.94-1.11Zm-.79,4.41c-.29,.35-.65,.53-1.05,.53-.48,0-.87-.17-1.16-.52-.29-.35-.44-.84-.44-1.49,0-.44,.07-.82,.21-1.14,.14-.32,.33-.56,.57-.73,.24-.17,.52-.25,.83-.25s.56,.08,.79,.25c.23,.17,.4,.41,.52,.72,.12,.31,.18,.68,.18,1.1,0,.66-.15,1.17-.44,1.52Z"/>
          <path class="cls-11" d="M240.53,474.64c-.11-.07-.23-.1-.35-.1-.17,0-.3,.03-.4,.09-.09,.06-.18,.17-.26,.34-.08,.17-.18,.41-.28,.71l-1.3,3.71-1.37-3.99c-.09-.28-.2-.49-.31-.64-.12-.15-.3-.22-.53-.22-.13,0-.26,.04-.39,.11-.12,.07-.22,.17-.29,.28-.07,.12-.11,.25-.11,.39,0,.13,.06,.34,.18,.63l1.99,5.02-.15,.36c-.11,.26-.21,.47-.29,.6-.09,.14-.18,.23-.29,.29-.11,.06-.25,.08-.44,.08-.07,0-.16-.01-.27-.04-.08-.02-.17-.04-.26-.04-.22,0-.39,.05-.5,.15-.11,.1-.17,.24-.17,.43,0,.27,.12,.46,.36,.56,.24,.1,.59,.15,1.07,.15s.87-.07,1.16-.22c.29-.15,.52-.36,.69-.64,.17-.28,.35-.66,.53-1.14l2.11-5.53c.05-.14,.09-.28,.13-.42,.04-.14,.06-.25,.08-.32,0-.12-.03-.24-.09-.35-.06-.11-.15-.2-.26-.26Z"/>
        </g>
        <g>
          <g>
            <path class="cls-11" d="M262.93,472.13c-.53,0-.95,.07-1.26,.2-.31,.14-.53,.35-.65,.65-.13,.3-.19,.7-.19,1.21v.49h-.39c-.54,0-.81,.19-.81,.58,0,.17,.07,.32,.2,.42,.13,.11,.32,.16,.56,.16h.45v4.29c0,.32,.07,.56,.23,.73,.15,.17,.34,.25,.57,.25,.24,0,.44-.08,.59-.25,.16-.17,.23-.41,.23-.73v-4.29h.4c.29,0,.52-.04,.68-.11,.17-.07,.25-.24,.25-.5,0-.37-.31-.56-.93-.56h-.4v-.39c0-.32,.04-.57,.12-.74,.09-.17,.27-.26,.57-.26,.11,0,.24,.01,.39,.03,.16,.03,.27,.04,.33,.04,.13,0,.25-.05,.35-.16,.1-.11,.15-.24,.15-.38,0-.47-.47-.7-1.42-.7Z"/>
            <path class="cls-11" d="M268.09,474.79c-.32-.17-.65-.26-.99-.26s-.61,.08-.82,.26c-.2,.17-.4,.42-.59,.75-.01-.33-.08-.58-.2-.75-.12-.17-.31-.26-.58-.26-.53,0-.79,.36-.79,1.09v4.51c0,.32,.08,.57,.23,.73,.15,.17,.34,.25,.58,.25s.43-.08,.59-.25c.15-.16,.23-.41,.23-.74v-1.35c0-.49,.01-.9,.04-1.24,.03-.34,.09-.63,.17-.88,.08-.24,.2-.43,.35-.55,.15-.12,.34-.19,.58-.19,.17,0,.37,.04,.6,.11,.23,.07,.37,.11,.43,.11,.16,0,.3-.06,.44-.19,.13-.13,.2-.29,.2-.49,0-.28-.16-.51-.48-.68Z"/>
            <path class="cls-11" d="M274.18,478.05c.23-.12,.35-.39,.35-.79,0-.44-.11-.87-.34-1.3-.22-.42-.57-.77-1.02-1.03-.45-.27-1-.4-1.63-.4-.49,0-.93,.08-1.33,.23-.4,.16-.74,.38-1.01,.67-.28,.29-.48,.64-.62,1.05-.14,.41-.22,.85-.22,1.33,0,1.02,.29,1.82,.87,2.42,.58,.59,1.39,.89,2.43,.89,.45,0,.86-.06,1.21-.18,.35-.12,.64-.27,.87-.45,.23-.18,.4-.37,.52-.57,.11-.19,.17-.36,.17-.51,0-.17-.05-.29-.15-.39-.1-.09-.24-.14-.41-.14-.15,0-.27,.04-.36,.11-.2,.19-.37,.34-.49,.45-.13,.11-.26,.22-.41,.31-.15,.1-.31,.17-.47,.21-.16,.05-.34,.07-.53,.07-.29,0-.55-.07-.79-.21-.24-.14-.43-.36-.58-.64-.14-.28-.22-.61-.22-.97h3.17c.42,0,.75-.06,.98-.18Zm-4.16-.74c.05-.55,.21-.96,.47-1.24,.26-.28,.59-.42,.99-.42,.43,0,.76,.14,1.03,.41,.26,.27,.41,.69,.45,1.24h-2.94Z"/>
            <path class="cls-11" d="M280.92,478.05c.23-.12,.35-.39,.35-.79,0-.44-.12-.87-.34-1.3-.22-.42-.56-.77-1.01-1.03-.46-.27-1-.4-1.63-.4-.49,0-.93,.08-1.33,.23-.4,.16-.74,.38-1.01,.67-.27,.29-.48,.64-.62,1.05-.14,.41-.22,.85-.22,1.33,0,1.02,.29,1.82,.87,2.42,.58,.59,1.39,.89,2.43,.89,.45,0,.86-.06,1.21-.18,.35-.12,.64-.27,.87-.45,.23-.18,.41-.37,.52-.57,.12-.19,.17-.36,.17-.51,0-.17-.05-.29-.15-.39-.1-.09-.24-.14-.41-.14-.15,0-.27,.04-.36,.11-.2,.19-.37,.34-.49,.45-.13,.11-.26,.22-.41,.31-.15,.1-.31,.17-.47,.21-.16,.05-.34,.07-.53,.07-.29,0-.56-.07-.79-.21-.24-.14-.43-.36-.58-.64-.14-.28-.22-.61-.22-.97h3.17c.42,0,.75-.06,.98-.18Zm-4.15-.74c.05-.55,.21-.96,.47-1.24,.26-.28,.59-.42,1-.42,.43,0,.76,.14,1.03,.41,.26,.27,.41,.69,.45,1.24h-2.94Z"/>
            <path class="cls-11" d="M286.93,474.94c-.42-.26-.88-.39-1.38-.39-.41,0-.79,.09-1.11,.27-.33,.18-.65,.45-.95,.83v-.19c0-.3-.07-.52-.22-.68-.14-.16-.33-.23-.56-.23s-.42,.08-.55,.23c-.13,.15-.2,.38-.2,.69v6.99c0,.35,.05,.62,.15,.81,.1,.18,.3,.27,.61,.27,.52,0,.78-.36,.78-1.07v-2.43c.29,.36,.59,.63,.9,.82,.31,.19,.7,.28,1.17,.28,.39,0,.74-.08,1.08-.23,.33-.15,.62-.37,.87-.65,.24-.28,.44-.63,.58-1.05,.14-.42,.21-.88,.21-1.38,0-.68-.12-1.26-.37-1.76-.24-.49-.57-.87-.99-1.13Zm-.48,4c-.14,.31-.32,.55-.55,.7-.23,.15-.48,.23-.75,.23-.45,0-.83-.18-1.13-.54-.31-.36-.46-.86-.46-1.5,0-.69,.15-1.2,.46-1.56,.31-.35,.68-.53,1.13-.53,.28,0,.54,.08,.77,.25,.23,.16,.41,.4,.54,.7,.13,.31,.2,.67,.2,1.1s-.07,.82-.21,1.14Z"/>
            <path class="cls-11" d="M289.9,474.54c-.24,0-.43,.08-.58,.24-.15,.16-.22,.4-.22,.72v4.64c0,.31,.08,.56,.22,.73,.15,.17,.34,.25,.58,.25s.43-.08,.59-.25c.15-.16,.23-.41,.23-.73v-4.69c0-.29-.08-.51-.23-.67-.16-.17-.35-.24-.59-.24Z"/>
            <path class="cls-11" d="M289.92,472.2c-.22,0-.41,.08-.57,.22-.17,.15-.25,.34-.25,.57,0,.25,.08,.45,.24,.59,.16,.14,.35,.21,.58,.21s.41-.07,.57-.21c.16-.14,.24-.34,.24-.59s-.08-.45-.24-.59c-.16-.13-.35-.2-.56-.2Z"/>
            <path class="cls-11" d="M297.26,479.57l-1.66-2.61,.86-.79c.44-.4,.66-.71,.66-.95,0-.19-.07-.35-.2-.48-.14-.13-.31-.19-.51-.19-.17,0-.31,.04-.43,.13-.12,.09-.29,.25-.52,.49l-1.82,1.91v-3.93c0-.33-.07-.58-.22-.75-.15-.17-.34-.26-.59-.26s-.46,.09-.6,.28c-.14,.19-.21,.46-.21,.82v6.91c0,.32,.07,.57,.21,.73,.14,.17,.34,.25,.59,.25,.21,0,.41-.08,.57-.25,.16-.17,.25-.41,.25-.72v-1.29l.88-.83,1.43,2.35c.18,.28,.33,.47,.44,.58,.11,.11,.26,.16,.46,.16,.23,0,.41-.07,.55-.22,.14-.15,.21-.35,.21-.61,0-.09-.03-.19-.08-.29-.05-.1-.14-.25-.26-.44Z"/>
            <path class="cls-11" d="M299.45,479.34c-.25,0-.46,.09-.63,.26-.17,.17-.26,.38-.26,.62,0,.29,.09,.51,.27,.67,.18,.16,.39,.24,.63,.24s.44-.08,.62-.24c.17-.16,.26-.38,.26-.66,0-.24-.09-.45-.26-.63-.18-.17-.39-.26-.64-.26Z"/>
            <path class="cls-11" d="M306.84,478.42c-.17,0-.31,.05-.42,.16-.11,.1-.22,.25-.32,.43-.18,.31-.38,.54-.62,.69-.23,.15-.51,.23-.83,.23-.24,0-.46-.05-.67-.14-.2-.09-.37-.23-.52-.41-.14-.18-.25-.4-.33-.65-.07-.26-.11-.54-.11-.84,0-.65,.15-1.16,.44-1.53,.29-.37,.68-.56,1.16-.56,.33,0,.61,.08,.82,.23,.22,.15,.42,.38,.62,.67,.11,.16,.21,.27,.3,.34,.09,.07,.2,.1,.34,.1,.2,0,.38-.07,.52-.2,.14-.13,.21-.3,.21-.49s-.06-.4-.19-.62c-.13-.22-.31-.42-.56-.62-.25-.19-.54-.35-.89-.47-.35-.12-.74-.18-1.16-.18-.67,0-1.26,.14-1.75,.42-.49,.28-.86,.67-1.11,1.18-.26,.51-.39,1.1-.39,1.76,0,.98,.28,1.76,.84,2.35,.56,.58,1.34,.88,2.35,.88,.47,0,.89-.07,1.27-.19,.38-.13,.69-.29,.93-.5,.25-.21,.43-.42,.55-.66,.12-.23,.18-.45,.18-.65,0-.17-.07-.33-.2-.48-.13-.15-.29-.23-.49-.23Z"/>
            <path class="cls-11" d="M313.65,475.45c-.29-.29-.63-.52-1.03-.67-.4-.16-.85-.24-1.34-.24s-.92,.08-1.33,.23c-.4,.16-.74,.38-1.02,.67-.28,.29-.5,.64-.65,1.04-.15,.41-.22,.86-.22,1.35s.08,.93,.22,1.33c.15,.4,.37,.75,.66,1.05,.28,.29,.63,.52,1.02,.68,.39,.16,.83,.24,1.33,.24s.94-.08,1.34-.23c.39-.16,.74-.38,1.02-.67,.29-.29,.5-.64,.66-1.05,.15-.41,.22-.85,.22-1.34s-.08-.93-.22-1.34c-.15-.4-.36-.75-.65-1.04Zm-1.19,3.92c-.29,.37-.68,.56-1.17,.56-.32,0-.6-.09-.85-.25-.24-.17-.42-.41-.55-.73-.13-.32-.19-.68-.19-1.11s.07-.8,.2-1.12c.13-.32,.31-.56,.56-.73,.24-.16,.52-.25,.84-.25,.49,0,.88,.18,1.17,.55,.29,.37,.44,.88,.44,1.54s-.15,1.16-.44,1.53Z"/>
            <path class="cls-11" d="M323.57,474.81c-.32-.17-.7-.26-1.15-.26-.38,0-.73,.08-1.04,.24-.31,.16-.61,.41-.88,.74-.19-.33-.43-.57-.72-.74-.29-.16-.64-.24-1.05-.24s-.75,.08-1.07,.24c-.32,.16-.62,.4-.9,.74v-.15c0-.26-.07-.47-.22-.62-.15-.14-.33-.22-.56-.22s-.41,.08-.56,.24c-.14,.16-.21,.39-.21,.69v4.64c0,.34,.08,.59,.23,.76,.16,.17,.36,.26,.6,.26s.45-.09,.6-.26c.15-.17,.23-.43,.23-.76v-2.19c0-.68,.09-1.21,.25-1.57,.17-.37,.52-.55,1.05-.55,.26,0,.46,.07,.58,.22,.12,.14,.2,.33,.23,.55,.03,.23,.04,.54,.04,.95v2.58c0,.34,.08,.59,.23,.77,.15,.17,.35,.26,.59,.26s.45-.08,.61-.26c.16-.17,.23-.43,.23-.77v-2.15c0-.69,.06-1.18,.18-1.45,.11-.21,.26-.38,.45-.51,.19-.13,.4-.19,.61-.19,.26,0,.46,.07,.6,.21,.13,.14,.21,.32,.24,.53,.03,.21,.04,.49,.04,.84v2.73c0,.34,.08,.59,.23,.76,.16,.17,.36,.26,.6,.26s.46-.08,.61-.26c.15-.17,.23-.43,.23-.77v-3.16c0-.63-.07-1.09-.21-1.39-.16-.32-.4-.57-.72-.75Z"/>
          </g>
          <g>
            <path class="cls-11" d="M245.27,477.44s0,0,0-.01c0,0,0,0,0,.01Z"/>
            <path class="cls-11" d="M245.35,477.96h0c-.03-.15-.05-.29-.07-.44,.02,.15,.04,.29,.07,.44Z"/>
            <path class="cls-11" d="M245.89,479.47s0-.01-.01-.02c0,0,0,.01,.01,.02Z"/>
            <path class="cls-11" d="M245.84,479.37s-.03-.06-.04-.08c.01,.03,.03,.06,.04,.08Z"/>
            <path class="cls-11" d="M245.51,478.54c.08,.25,.18,.49,.29,.72-.11-.24-.21-.48-.28-.72h0Z"/>
            <path class="cls-11" d="M250.74,470.68l-.08-.26c.3-.06,.52-.33,.52-.65,0-.36-.3-.66-.66-.66s-.66,.3-.66,.66c0,.32,.22,.58,.52,.65l.08,.29c-1.02,.14-1.83,.54-1.83,.54l.14,.44c.62-.21,1.15-.33,1.64-.38,.48-.05,.83-.07,1.13-.07,.31,0,.54,.02,.81,.07l.08-.48s-.73-.23-1.69-.15Z"/>
            <path class="cls-11" d="M245.45,473.19s-.5,.47-.88,1.28c-.02-.03-.03-.05-.06-.07-.11-.12-.27-.19-.47-.18h0c-.12,0-.21-.04-.27-.09,.06-.07,.09-.16,.09-.26,0-.23-.19-.42-.42-.42s-.42,.19-.42,.42,.19,.42,.42,.42c.04,0,.07,0,.1-.01,.1,.11,.27,.21,.5,.21,.12,0,.21,.03,.27,.1,.07,.08,.09,.18,.1,.27,0,0,0,0,0,0-.27,.74-.19,1.67-.19,1.67l.66,.03c.01-.34,.06-.93,.23-1.39,.33-.91,.74-1.47,.76-1.5h0s.05-.07,.07-.09l-.2-.14-.3-.22Z"/>
            <path class="cls-11" d="M257.29,471.79c-.23,0-.42,.19-.42,.42,0,.04,0,.07,.01,.1-.11,.1-.21,.27-.21,.51,0,.12-.03,.21-.1,.27-.05,.05-.12,.07-.18,.09-.49-.69-1.1-1.11-1.1-1.11l-.47,.51c.36,.33,.72,.73,1.08,1.24,.25,.35,.5,.81,.71,1.26l.64-.3s-.29-.72-.7-1.37c.07-.03,.14-.06,.21-.12,.13-.11,.19-.27,.18-.47,0-.13,.04-.22,.09-.28,.07,.05,.16,.09,.26,.09,.23,0,.42-.19,.42-.42s-.19-.42-.42-.42Z"/>
            <path class="cls-11" d="M255.63,477.54c-.88,.43-2.33,1-4.24,1.26-.75,.1-1.47,.14-2.14,.14-.87,0-1.64-.06-2.23-.14-.67-.08-1.2-.19-1.52-.26,.08,.24,.17,.49,.28,.72,0,0,0,.01,0,.02,.01,.03,.03,.06,.04,.08,.01,.03,.03,.05,.04,.08,0,0,0,.01,.01,.02,.19,.36,.42,.68,.68,.97,.9,.98,1.82,1.14,1.82,1.14h.01s.01,0,.01,0c0,0,.82,.26,2.06,.26s2.41-.24,3.55-.73c.84-.43,1.64-1.09,2.03-1.67,.31-.45,.53-.93,.66-1.43,.07-.27,.12-.69,.09-1.14-.25,.17-.64,.4-1.17,.66Z"/>
            <path class="cls-11" d="M252.32,471.66c-.26-.04-.48-.07-.78-.07-.28,0-.63,.02-1.09,.07-.46,.05-.98,.17-1.58,.37-.84,.28-1.6,.72-2.2,1.28l-.02,.02c-.09,.08-.27,.25-.49,.53-.03,.04-.41,.58-.71,1.41-.23,.62-.22,1.53-.22,1.54h0c0,.21,.01,.42,.04,.63,0,0,0,0,0,.01,0,.03,0,.05,0,.08,.02,.14,.04,.29,.07,.44,.44,.11,3.05,.72,5.97,.31,1.83-.25,3.22-.8,4.06-1.2,.7-.34,1.15-.65,1.32-.77-.17-.64-.65-1.65-1.09-2.28-1.25-1.79-2.6-2.25-3.3-2.36Zm-3.64,5.26c-.97,0-1.76-.79-1.76-1.76s.79-1.76,1.76-1.76,1.76,.79,1.76,1.76-.79,1.76-1.76,1.76Zm5.15-1.3c-.6,0-1.09-.49-1.09-1.09s.49-1.09,1.09-1.09,1.09,.49,1.09,1.09-.49,1.09-1.09,1.09Z"/>
          </g>
        </g>
      </g>
    </g>
  </g>
</svg>